<svg width="74" height="70" viewBox="0 0 74 70" fill="none" xmlns="http://www.w3.org/2000/svg">
<path d="M39.011 5.98099C39.011 2.28765 37.2847 0.440979 33.832 0.440979H26.263C22.8097 0.440979 21.0833 2.28765 21.084 5.98099V32.781H25.409V20.934L39.009 20.943L39.011 5.98099ZM34.687 17.015H25.408V6.25497C25.3722 5.99881 25.3964 5.73785 25.4786 5.49261C25.5608 5.24738 25.6988 5.02453 25.8817 4.84164C26.0646 4.65875 26.2874 4.52079 26.5326 4.4386C26.7778 4.35641 27.0388 4.33224 27.295 4.36798H32.795C33.0512 4.33224 33.3121 4.35641 33.5574 4.4386C33.8026 4.52079 34.0254 4.65875 34.2083 4.84164C34.3912 5.02453 34.5292 5.24738 34.6113 5.49261C34.6935 5.73785 34.7177 5.99881 34.682 6.25497L34.687 17.015Z" fill="#FF5E00"/>
<path d="M21.574 32.288V5.97801C21.4647 4.60359 21.8799 3.23877 22.736 2.158C23.2062 1.71957 23.7625 1.38388 24.3696 1.17228C24.9767 0.960685 25.6212 0.877827 26.262 0.928994H33.831C34.4719 0.877827 35.1163 0.960685 35.7234 1.17228C36.3304 1.38388 36.8868 1.71957 37.357 2.158C38.2134 3.23863 38.629 4.60346 38.52 5.97801V20.449L24.92 20.44V32.286L21.574 32.288ZM27.298 3.869C26.976 3.83172 26.6498 3.86774 26.3437 3.97431C26.0376 4.08089 25.7596 4.2553 25.5304 4.48448C25.3013 4.71365 25.1269 4.99165 25.0203 5.29774C24.9137 5.60382 24.8777 5.93007 24.915 6.25202V17.508H35.178V6.249C35.2153 5.92704 35.1793 5.60083 35.0727 5.29475C34.9661 4.98866 34.7917 4.71063 34.5625 4.48145C34.3334 4.25228 34.0553 4.0779 33.7492 3.97132C33.4432 3.86475 33.117 3.82873 32.795 3.86601L27.298 3.869Z" fill="#FF5E00"/>
<path d="M49.053 0.440979V26.741C49.053 28.1523 48.4676 28.8577 47.297 28.857H40.924C39.666 28.857 39.037 28.1516 39.037 26.741L39.031 22.478H34.707L34.713 26.605C34.713 30.719 36.4393 32.776 39.892 32.776H48.16C51.6427 32.776 53.384 30.734 53.384 26.65V0.440979H49.053Z" fill="url(#paint0_linear_1_175)"/>
<path d="M39.885 32.288C39.2361 32.3409 38.5837 32.2454 37.9772 32.0085C37.3708 31.7717 36.8262 31.3997 36.385 30.921C35.5043 29.6629 35.0873 28.1382 35.205 26.607L35.2 22.972H38.542L38.547 26.747C38.547 28.428 39.394 29.353 40.93 29.353H47.303C48.142 29.353 49.55 29.014 49.55 26.747V0.934998H52.891V26.656C53.0084 28.1764 52.5875 29.6896 51.702 30.931C51.2515 31.4098 50.6988 31.7807 50.0849 32.016C49.4711 32.2513 48.812 32.345 48.157 32.29L39.885 32.288Z" fill="url(#paint1_linear_1_175)"/>
<path d="M12.512 56.029C12.512 50.187 4.048 52.441 4.048 48.83C4.048 47.289 5.221 46.553 6.739 46.599C8.395 46.645 9.338 47.634 9.43 48.715H12.328C12.098 45.978 9.936 44.368 6.877 44.368C3.611 44.368 1.38 46.116 1.38 48.922C1.38 54.81 9.867 52.303 9.867 56.167C9.867 57.524 8.832 58.513 6.992 58.513C5.175 58.513 4.255 57.455 4.14 56.144H1.334C1.334 58.973 3.795 60.721 6.992 60.721C10.557 60.721 12.512 58.421 12.512 56.029ZM16.0199 57.041C16.0199 59.617 17.4229 60.56 19.6769 60.56H21.7469V58.375H20.1369C19.0329 58.375 18.6649 57.984 18.6649 57.041V50.026H21.7469V47.887H18.6649V44.736H16.0199V47.887H14.5249V50.026H16.0199V57.041ZM35.6405 47.887H33.0185V54.948C33.0185 57.271 31.7535 58.467 29.8215 58.467C27.9125 58.467 26.6475 57.271 26.6475 54.948V47.887H24.0485V55.339C24.0485 58.881 26.3025 60.744 29.2695 60.744C30.7645 60.744 32.1905 60.123 33.0185 59.042V60.56H35.6405V47.887ZM38.226 54.166C38.226 58.076 40.871 60.767 44.206 60.767C46.276 60.767 47.794 59.801 48.599 58.651V60.56H51.244V43.54H48.599V49.658C47.633 48.462 45.885 47.68 44.229 47.68C40.871 47.68 38.226 50.256 38.226 54.166ZM48.599 54.212C48.599 56.949 46.736 58.49 44.758 58.49C42.803 58.49 40.917 56.903 40.917 54.166C40.917 51.429 42.803 49.957 44.758 49.957C46.736 49.957 48.599 51.498 48.599 54.212ZM54.6879 60.56H57.3099V47.887H54.6879V60.56ZM56.0219 46.208C56.9419 46.208 57.6779 45.472 57.6779 44.529C57.6779 43.586 56.9419 42.85 56.0219 42.85C55.0789 42.85 54.3429 43.586 54.3429 44.529C54.3429 45.472 55.0789 46.208 56.0219 46.208ZM72.8273 54.212C72.8273 50.233 69.9753 47.68 66.3643 47.68C62.7533 47.68 59.9013 50.233 59.9013 54.212C59.9013 58.191 62.6383 60.767 66.2493 60.767C69.8833 60.767 72.8273 58.191 72.8273 54.212ZM62.5693 54.212C62.5693 51.337 64.3403 49.957 66.3183 49.957C68.2733 49.957 70.1363 51.337 70.1363 54.212C70.1363 57.087 68.2043 58.49 66.2493 58.49C64.2713 58.49 62.5693 57.087 62.5693 54.212Z" fill="black"/>
<defs>
<linearGradient id="paint0_linear_1_175" x1="63.7684" y1="-6.41404" x2="20.484" y2="7.08346" gradientUnits="userSpaceOnUse">
<stop/>
<stop offset="0.5"/>
<stop offset="1"/>
</linearGradient>
<linearGradient id="paint1_linear_1_175" x1="62.7653" y1="-5.71551" x2="21.53" y2="6.8627" gradientUnits="userSpaceOnUse">
<stop/>
<stop offset="0.5"/>
<stop offset="1"/>
</linearGradient>
</defs>
</svg>
